<?xml version="1.0" encoding="utf-8"?>
<!-- Generator: Adobe Illustrator 22.0.1, SVG Export Plug-In . SVG Version: 6.00 Build 0)  -->
<svg version="1.1" id="Слой_1" xmlns="http://www.w3.org/2000/svg" xmlns:xlink="http://www.w3.org/1999/xlink" x="0px" y="0px"
	 viewBox="0 0 31 22" style="enable-background:new 0 0 31 22;" xml:space="preserve">
<style type="text/css">
	.st0{fill:#9B2062;}
</style>
<path class="st0" d="M30.3,3.4C30,2.1,28.9,1,27.6,0.7C25.2,0,15.5,0,15.5,0S5.8,0,3.4,0.6C2.1,1,1,2.1,0.6,3.4C0,5.8,0,10.8,0,10.8
	s0,5.1,0.6,7.5C1,19.6,2,20.7,3.4,21c2.4,0.7,12.1,0.7,12.1,0.7s9.7,0,12.1-0.6c1.3-0.4,2.4-1.4,2.7-2.7c0.6-2.4,0.6-7.5,0.6-7.5
	S31,5.8,30.3,3.4L30.3,3.4z M12.4,15.5V6.2l8.1,4.6L12.4,15.5z"/>
</svg>
