<?xml version="1.0" encoding="utf-8"?>
<!-- Generator: Adobe Illustrator 22.0.1, SVG Export Plug-In . SVG Version: 6.00 Build 0)  -->
<svg version="1.1" id="Слой_1" xmlns="http://www.w3.org/2000/svg" xmlns:xlink="http://www.w3.org/1999/xlink" x="0px" y="0px"
	 viewBox="0 0 20 20" style="enable-background:new 0 0 20 20;" xml:space="preserve">
<style type="text/css">
	.st0{fill:#9B2062;}
</style>
<path class="st0" d="M19.9,19.6L19.9,19.6L19.9,19.6l0-7c0-3.4-0.7-6-4.7-6c-1.9,0-3.2,1.1-3.7,2h-0.1V6.9H7.7v12.7h3.9v-6.3
	c0-1.7,0.3-3.3,2.4-3.3c2,0,2,1.9,2,3.4v6.2H19.9z"/>
<path class="st0" d="M1.2,6.9h3.9v12.7H1.2V6.9z"/>
<path class="st0" d="M3.2,0.6c-1.3,0-2.3,1-2.3,2.3c0,1.3,1,2.3,2.3,2.3s2.3-1,2.3-2.3C5.5,1.6,4.5,0.6,3.2,0.6L3.2,0.6z"/>
</svg>
